<svg width="15" height="12" xmlns="http://www.w3.org/2000/svg" xmlns:xlink="http://www.w3.org/1999/xlink">
  <use xlink:href="#path0_stroke" transform="translate(1 1.5)" fill="#FFF"/>
  <defs>
    <path id="path0_stroke" d="M.807692 3.42825c-.32563-.44607-.951221-.54371-1.397297-.21808-.446075.32563-.543715.95122-.218086 1.39729L.807692 3.42825zM3.6369 9l-.80769.58961c.17022.23317.43291.38141.72051.40658.28759.02521.57204-.07518.78017-.27524L3.6369 9zM13.693.720948c.3982-.382727.4107-1.015769.0279-1.413937-.3827-.398171-1.0157-.410681-1.4139-.027958L13.693.720948zM-.807691 4.60746L2.82921 9.58961 4.4446 8.41039.807692 3.42825-.807691 4.60746zM4.32989 9.72095L13.693.720948 12.307-.720947 2.94391 8.27905l1.38598 1.4419z"/>
  </defs>
</svg>
