<svg width="16" height="20" xmlns="http://www.w3.org/2000/svg" xmlns:xlink="http://www.w3.org/1999/xlink">
  <use xlink:href="#path0_fill" transform="translate(.34 .47)" fill="#008489"/>
  <defs>
    <path id="path0_fill" fill-rule="evenodd" d="M0 7.65625C0 3.42749 3.42773 0 7.65625 0c4.22855 0 7.65625 3.42749 7.65625 7.65625 0 3.98125-2.0176 6.95995-7.36084 11.30125-.17187.1399-.41895.1399-.59082 0C2.01758 14.6162 0 11.6375 0 7.65625zm5.08545 1.48437c.53027.91858 1.51025 1.48438 2.5708 1.48438 1.63965 0 2.96875-1.3291 2.96875-2.96875S9.2959 4.6875 7.65625 4.6875c-1.06055 0-2.04053.5658-2.5708 1.48438-.53076.91857-.53076 2.05017 0 2.96874z"/>
  </defs>
</svg>
