<svg width="18" height="16" xmlns="http://www.w3.org/2000/svg" xmlns:xlink="http://www.w3.org/1999/xlink">
  <g transform="translate(1075 -1284)">
    <path fill="#FFF" d="M-1075 1284h18v16h-18z"/>
    <clipPath id="a" clip-rule="evenodd">
      <path d="M-2061-985h1124v2321h-1124V-985z" fill="#FFF"/>
    </clipPath>
    <g clip-path="url(#a)">
      <path d="M-2061-985h1124v2321h-1124V-985z" fill="#FFF"/>
      <use xlink:href="#path0_fill" transform="translate(-2061 935)" fill="#FFF" filter="url(#filter0_d)"/>
      <use xlink:href="#path1_fill" transform="translate(-1075 1284.5)" fill="#484848"/>
    </g>
  </g>
  <defs>
    <filter id="filter0_d" filterUnits="userSpaceOnUse" x="-2061" y="934" width="1124" height="402" color-interpolation-filters="sRGB">
      <feFlood flood-opacity="0" result="BackgroundImageFix"/>
      <feColorMatrix in="SourceAlpha" values="0 0 0 0 0 0 0 0 0 0 0 0 0 0 0 0 0 0 255 0"/>
      <feOffset dy="-.5"/>
      <feColorMatrix values="0 0 0 0 0.282353 0 0 0 0 0.282353 0 0 0 0 0.282353 0 0 0 0.3 0"/>
      <feBlend in2="BackgroundImageFix" result="effect1_dropShadow"/>
      <feBlend in="SourceGraphic" in2="effect1_dropShadow" result="shape"/>
    </filter>
    <path id="path0_fill" fill-rule="evenodd" d="M0 0h1124v401H0V0z"/>
    <path id="path1_fill" fill-rule="evenodd" d="M17.5303 1.59489c.1222-.03125.275 0 .3666.09375.0916.09375.1222.25.0916.375-.2749.90613-.8248 1.56238-1.497 1.90613v.09363C16.4915 10.0942 12.0921 15 6.71486 15c-3.02466 0-5.46875-.5312-6.568606-1.4373-.1223143-.125-.1833495-.2813-.1223143-.4688.0611572-.1562.2138673-.2812.3972163-.2812 1.802614-.0313 2.963504-.4687 3.849484-.9999-1.71081-.2188-2.78015-1.0624-3.330074-2.65602-.061158-.15625 0-.3125.122194-.40625.12219-.09375.30554-.09375.42773-.03125.45825.3125.91651.375 1.46643.375C1.79591 8.37566.726698 7.18816.298964 5.71953c-.03064-.15625.030518-.34363.15271-.40613.15271-.09375.305542-.0625.427734.03125.336062.28113.702762.46863 1.252682.56238C.940566 4.65715.207289 2.81352 1.24599.782516l.18335-.375.30542.3125C3.62904 2.75102 5.3705 3.68852 8.54799 4.3134v-.125c0-2.28101 1.74141-4.1558838 3.91061-4.1871338.8554 0 2.0469.6249998 2.5358.9062498.0116 0 .0233.004517.0333.008423.0161.006348.0279.010864.0279-.008423.6109-.1875 1.3442-.5 2.1997-.8749998.1222-.0625.275-.03125.3665.0625.0918.0937498.1224.2187498.0612.3749998-.1527.4375-.3971.906254-.7638 1.343624l.6111-.21875zm-1.7948 2.14295l.1778-.06043c.5632-.21118.8892-.66394 1.0967-1.05615l-1.156.39234c-.1482.0603-.326 0-.3852-.15088-.0594-.151-.0297-.33203.0888-.42261.4743-.39233.83-.81482 1.0967-1.26746-.5928.24134-1.1263.45264-1.5709.60352-.1779.0603-.3557.03015-.5336-.0603l-.0178-.00989c-.3475-.19324-1.4464-.804567-2.1162-.774782C10.6373.961349 9.21461 2.50053 9.21461 4.37163v.84497l-.35559-.0603c-3.2605-.60364-5.06848-1.47889-6.96545-3.38013-.88928 2.29358.94848 3.89319 1.57092 4.34582l.74097.54322h-.91883c-.59289 0-1.24487-.06031-1.83776-.33191.6521 1.38818 1.98596 2.4143 3.1123 2.74634l-.08899.60351c-.23706 0-.47424 0-.7113.03015-.62244.03028-1.18567.03028-1.71912-.15088.59278 1.14688 1.63025 1.62978 3.3197 1.62978h.88916l-.74096.5432c-.91883.7242-2.10449 1.3882-4.14966 1.5392.97815.4828 2.78613.9355 5.4834.9355 4.6213 0 8.8921-4.71103 8.8921-9.9592v-.51306z"/>
  </defs>
</svg>
