<svg width="21" height="22" xmlns="http://www.w3.org/2000/svg" xmlns:xlink="http://www.w3.org/1999/xlink">
  <use xlink:href="#path0_fill" transform="translate(.02 .01)" fill="#767676"/>
  <defs>
    <path id="path0_fill" fill-rule="evenodd" d="M19.3182 13.6783c.3643.7529.6557 1.3842.8257 1.9184 1.2384 3.402-1.3113 6.3912-4.3976 6.3888-.0243 0-.1214 0-.2428-.0243h-.3399c-1.6027-.1944-3.2564-1.2166-4.9319-3.0379-1.67543 1.8238-3.32911 2.8435-4.93177 3.0379h-.33997c-.12134.0243-.2185.0243-.2428.0243-3.0863 0-5.635983-2.9868-4.39758-6.3888.024292-.0729.12146-.3157.315674-.777l.510006-1.1171v-.0485c1.724-3.66911 3.32911-6.97148 4.85889-9.93645l.07288-.14563C7.04834 1.55408 7.99768 0 10.2317 0c2.2607 0 3.0378 1.33801 4.1305 3.57202l.0972.14563c1.5297 2.96497 3.1348 6.26734 4.8588 9.93645v.0242zm-.2913 4.1062c-.1701 1.1413-.9471 2.0883-2.0155 2.5496-2.064.8986-4.1062-.5342-5.8545-2.4768 2.8921-3.6205 3.4262-6.4373 2.1854-8.26086-.7285-1.04419-1.7726-1.55408-3.1106-1.55408-2.69532 0-4.17909 2.28264-3.59632 4.93174.33996 1.4326 1.23852 3.062 2.67114 4.8832-.89844.9956-1.74829 1.6998-2.5011 2.137-.58276.3156-1.14124.5099-1.67554.5584-2.45251.3643-4.373288-2.0155-3.49902-4.4704.12134-.3157.36414-.8985.77698-1.7969l.02429-.0486C3.7677 11.3204 5.39697 8.01807 7.26672 4.349l.04859-.12146.5343-1.0199.04382-.07995c.38184-.69739.56262-1.02759 1.19458-1.42554.31568-.19422.7041-.29138 1.14119-.29138.8742 0 1.5541.50988 1.8455.92273.1137.17041.242.38513.3966.64404l.0073.01221.1303.21789.51.99561.0729.14575c1.8697 3.66907 3.499 6.9714 4.8346 9.8878l.0243.0243.4857 1.117.2914.7042c.2233.5609.2719 1.1194.1991 1.7022zm-8.7951-1.044c-1.23839-1.5541-1.96691-2.9164-2.20971-4.0819-.24279-.9471-.14575-1.6999.26709-2.2583.43714-.65567 1.09278-.97134 1.94262-.97134.8499 0 1.5055.31567 1.9426.97134.4128.5584.5099 1.3112.2671 2.2583-.2671 1.1898-.9956 2.5497-2.2097 4.0819z"/>
  </defs>
</svg>
