<svg width="32" height="32" xmlns="http://www.w3.org/2000/svg" xmlns:xlink="http://www.w3.org/1999/xlink">
  <use xlink:href="#path0_fill"/>
  <defs>
    <path id="path0_fill" fill-rule="evenodd" d="M30 31h1.5c.2761 0 .5.2239.5.5s-.2239.5-.5.5H25V21.676c0-.924-.673-1.676-1.5-1.676s-1.5.752-1.5 1.676V32H.5c-.276123 0-.5-.2239-.5-.5s.223877-.5.5-.5H3v-4H1c-.150391-.0002-.292725-.0681-.387573-.1848-.094849-.1167-.13208-.27-.101441-.4173l2.500004-12c.04724-.2324.25171-.3996.48901-.3996s.44177.1672.48901.3996l2.5 12.001c.03028.1472-.00708.3001-.1018.4168-.09485.1164-.23706.1841-.38721.1843H4v4h5V6.02295L19.5.00390625 25 3.15698V.5c0-.276123.2239-.5.5-.5s.5.223877.5.5v3.22998l4 2.29297V31zm-4 0h3V6.60205l-9.5-5.44604L10 6.60205V31h11v-9.324C21 20.2 22.121 19 23.5 19s2.5 1.2 2.5 2.676V31zm-.75-15c.4142 0 .75-.3357.75-.75v-4.7439C26.0006 9.12402 24.882 8.00269 23.5 8c-1.382.00269-2.5006 1.12402-2.5 2.5061v4.7449c.006.4116.3384.7436.75.749h3.5zM22 10.5061C22 9.67505 22.673 9 23.5 9s1.5.67505 1.5 1.5061V15h-3v-4.4939zm-8 11V26h3v-4.4939C17 20.676 16.327 20 15.5 20s-1.5.676-1.5 1.5061zM15.5 19c-1.3817.0034-2.5 1.1243-2.5 2.5061v4.7449c.006.4116.3384.7436.75.749h3.5c.4142 0 .75-.3357.75-.75v-4.7439c0-1.3818-1.1183-2.5027-2.5-2.5061zM14 15h3v-4.4939C17 9.67505 16.327 9 15.5 9s-1.5.67505-1.5 1.5061V15zm1.5-7c-1.3817.00342-2.5 1.12427-2.5 2.5061v4.7449c.006.4116.3384.7436.75.749h3.5c.4142 0 .75-.3357.75-.75v-4.7439C18 9.12427 16.8817 8.00342 15.5 8zM1.61499 26L3.5 16.9519 5.38501 26H1.61499z"/>
  </defs>
</svg>
