<svg width="32" height="32" xmlns="http://www.w3.org/2000/svg" xmlns:xlink="http://www.w3.org/1999/xlink">
  <use xlink:href="#path0_fill"/>
  <defs>
    <path id="path0_fill" fill-rule="evenodd" d="M31.5 32c.2761 0 .5-.2239.5-.5s-.2239-.5-.5-.5H23V7c0-3.86011-3.141-7-7-7S9 3.13989 9 7v1.5c0 .27612.22388.5.5.5.15833 0 .29956-.07373.39111-.18848C9.95923 8.72607 10 8.61768 10 8.5V7c0-3.30908 2.691-6 6-6s6 2.69092 6 6v24H10v-7.5c0-.2761-.22388-.5-.5-.5-.27612 0-.5.2239-.5.5V31H.5c-.276123 0-.5.2239-.5.5s.223877.5.5.5h31zM14 15.5v6c0 .2761-.2239.5-.5.5h-8c-.27612 0-.5-.2239-.5-.5v-6c0-.2761.22388-.5.5-.5H7v-1.5C7 12.1221 8.12097 11 9.5 11c1.379 0 2.5 1.1221 2.5 2.5V15h1.5c.2761 0 .5.2239.5.5zm-3-2V15H8v-1.5c0-.8269.67297-1.5 1.5-1.5.827 0 1.5.6731 1.5 1.5zm2 7.5v-5H6v5h7zm6-3c.5522 0 1-.4478 1-1s-.4478-1-1-1-1 .4478-1 1 .4478 1 1 1z"/>
  </defs>
</svg>
