<svg width="33" height="32" xmlns="http://www.w3.org/2000/svg" xmlns:xlink="http://www.w3.org/1999/xlink">
  <use xlink:href="#path0_fill" transform="translate(1 .5)"/>
  <defs>
    <path id="path0_fill" fill-rule="evenodd" d="M30.4903 1.89502c-.0502-.22998-.2536-.39429-.489-.39502h-3v-1c0-.276123-.2239-.5-.5-.5-.1574 0-.2978.0725098-.3894.186279-.0295.036377-.0539.076905-.0722.12085-.0248.059326-.0384.124512-.0384.192871v1h-3c-.1043 0-.2022.03223-.2834.08813-.0495.03394-.0929.07691-.1275.12671-.0154.02222-.0291.04566-.0408.07032l-.0094.02075c-.0118.02832-.0212.0581-.028.08911l-1.5 7c-.0211.09595-.013.19482.0212.28467.0185.04858.0448.09448.0782.13574.0955.11768.2391.18579.3906.18457h4.4991v21h-1.5c-.2762 0-.5.2239-.5.5s.2238.5.5.5h4c.2761 0 .5-.2239.5-.5s-.2239-.5-.5-.5h-1.5v-21h4.5c.0897 0 .1765-.02417.252-.06836.0517-.03003.0982-.06958.1368-.11743.0116-.01441.0223-.0293.0321-.04468.0105-.01636.02-.0332.0284-.05054.0085-.01757.0161-.03564.0225-.0542.0056-.01611.0103-.03247.0142-.04907.017-.07153.018-.14697.002-.2207l-1.499-7zM22.1193 8.5l1.286-6h6.192l1.286 6h-8.764zm-4.1179 22h2.547l.4499-8.552c.0036-.0652.003-.1296-.0017-.1929-.0078-.1054-.0267-.208-.0563-.3061-.0301-.1001-.0715-.1958-.1236-.2854-.051-.0879-.1123-.1699-.1834-.2447-.1651-.1748-.373-.2983-.6053-.3642-.1278-.0361-.2631-.0547-.4026-.0547h-1.624v10zm-13.00002-4H17.0014v-2H5.00138v2zm-3.54712 4h2.54712v-10H2.37736c-.37964-.0063-.74475.1453-1.00806.4189-.25964.2774-.391844.6502-.36499 1.0291l.44995 8.552zm3.54712-13.9971c0-1.105.89795-2.0029 2.00305-2.0029h7.99387c1.104 0 2.0031.8979 2.0031 2.0029V23.5H5.00138v-6.9971zm13.00002 0V19.5h1.6239c.6546-.009 1.2832.2561 1.7337.731.251.2646.434.581.5392.9223.0838.2713.1184.5584.0992.8477l-.501 9.499h-4.495v-4H5.00138v4H.506265l-.50097665-9.499C-.038657 21.3477.192788 20.7058.64335 20.2307c.45056-.4751 1.07922-.74 1.73401-.7307h1.62402v-2.9971c-.00036-.7964.31592-1.5605.87915-2.1237.56323-.5633 1.32727-.8794 2.12378-.8792h7.99399c.7965-.0002 1.5606.3159 2.1238.8792.5632.5632.8795 1.3273.8793 2.1237z"/>
  </defs>
</svg>
