<svg width="21" height="22" xmlns="http://www.w3.org/2000/svg" xmlns:xlink="http://www.w3.org/1999/xlink">
  <use xlink:href="#path0_fill" transform="translate(.2 .202)" fill="#484848" opacity=".64"/>
  <defs>
    <path id="path0_fill" fill-rule="evenodd" d="M15.0714 15.1026l4.7727 4.7826c.2864.2869.1909.7652-.0954 1.0522-.2863.2869-.7636.2869-1.05 0l-4.7727-4.7826v-.0957c-1.7182 1.3392-4.00913 2.0087-6.39548 1.6261C2.75781 16.92-.58313 12.52.085083 7.64172.848755 2.76343 5.33508-.584351 10.1078.0852051 14.8805.850403 18.2214 5.25043 17.5532 10.1287c-.2864 2.0087-1.1454 3.6347-2.4818 4.9739zM1.51697 7.83301C.944214 11.946 3.80786 15.6765 7.81689 16.2504c4.00911.5739 7.82731-2.2956 8.40001-6.31302.5728-4.11304-2.2909-7.84351-6.29991-8.41742C5.81238.946045 2.08972 3.81561 1.51697 7.83301z"/>
  </defs>
</svg>
