<svg width="16" height="16" xmlns="http://www.w3.org/2000/svg" xmlns:xlink="http://www.w3.org/1999/xlink">
  <use xlink:href="#path0_fill" transform="translate(.23 .23)" fill="#484848"/>
  <defs>
    <path id="path0_fill" d="M15.1 13.7667c.4.4.4 1.0666 0 1.4666-.4.4-1.0667.4-1.4667 0L7.76667 9.23333l-6 5.99997c-.4.4-1.06667.4-1.46667 0-.4-.4-.4-1.0666 0-1.4666l6-6.00003-5.866667-6C.0333333 1.36667.0333333.7.433333.3.833333-.1 1.5-.1 1.9.3l5.86667 6 6.00003-6c.4-.4 1.0666-.4 1.4666 0 .4.4.4 1.06667 0 1.46667l-5.99997 6L15.1 13.7667z"/>
  </defs>
</svg>
