<svg width="19" height="14" xmlns="http://www.w3.org/2000/svg" xmlns:xlink="http://www.w3.org/1999/xlink">
  <use xlink:href="#path0_stroke" transform="translate(2 2)" fill="#008489"/>
  <defs>
    <path id="path0_stroke" d="M1.19536 3.49861c-.50046-.66018-1.44134-.78966-2.101517-.2892-.660173.50045-.789653 1.44133-.289203 2.10151l2.39072-1.81231zm2.94512 6.36806l-1.19536.90613c.25577.3374.64223.551 1.064.5881.42177.0371.83957-.1058 1.15029-.3934L4.14048 9.86667zM15.8189 1.10081c.608-.56274.6447-1.51178.0819-2.11974-.5627-.60796-1.5118-.64462-2.1197-.08188l2.0378 2.20162zM-1.19536 5.31092l4.14048 5.46188 2.39071-1.81229-4.14047-5.4619-2.39072 1.81231zm6.35477 5.65658L15.8189 1.10081l-2.0378-2.20162L3.12155 8.76586l2.03786 2.20164z"/>
  </defs>
</svg>
