<svg width="30" height="32" xmlns="http://www.w3.org/2000/svg" xmlns:xlink="http://www.w3.org/1999/xlink">
  <use xlink:href="#path0_fill" transform="translate(.03 .011)" fill="#FF5A5F"/>
  <defs>
    <path id="path0_fill" fill-rule="evenodd" d="M28.0994 19.8958c.5298 1.0949.9536 2.0133 1.2008 2.7903 1.8014 4.9484-1.9073 9.2963-6.3965 9.2927-.0353 0-.1765 0-.3532-.0353h-.4945c-2.3311-.2826-4.7364-1.7695-7.1734-4.4185-2.4372 2.6525-4.8424 4.1359-7.17362 4.4185h-.4945c-.17652.0353-.31787.0353-.35315.0353-4.48914 0-8.19776-4.3443-6.396486-9.2927.0354-.106.176635-.4592.459228-1.1303l.741698-1.6246v-.0707C4.17346 14.5236 6.50818 9.72009 8.73328 5.40753l.10595-.21197C10.2521 2.2605 11.6331 0 14.8826 0c3.2882 0 4.4184 1.94617 6.0079 5.19556l.1412.21197c2.2253 4.31256 4.5599 9.11607 7.0677 14.45297v.0353zm-.4239 5.9727c-.2473 1.66-1.3775 3.0375-2.9316 3.7086-3.0022 1.3068-5.9727-.7771-8.5156-3.6027 4.2065-5.2662 4.9836-9.3633 3.1788-12.0159-1.0597-1.5187-2.5784-2.2604-4.5245-2.2604-3.9206 0-6.07864 3.32-5.23099 7.1734.49449 2.0839 1.80139 4.4539 3.88529 7.1029-1.3069 1.4481-2.5431 2.4724-3.63797 3.1082-.84778.4591-1.66004.7417-2.43714.8124-3.56738.5297-6.36108-2.9316-5.0896-6.5025.17664-.4592.52979-1.3068 1.13025-2.6137l.03528-.0706c1.94263-4.242 4.31262-9.0455 7.03218-14.38233l.0707-.17664.777-1.4834.0638-.11645c.5555-1.01441.8184-1.49469 1.7376-2.07343.4591-.28253 1.0243-.42383 1.66-.42383 1.2715 0 2.2605.7417 2.6844 1.34217.1674.2511.3568.5683.5856.9516l.0011.00195.1902.31799.7419 1.44812.1059.21192c2.7196 5.33683 5.0896 10.14033 7.0322 14.38233l.0353.0353.7064 1.6247.4239 1.0243c.3249.8159.3956 1.6283.2896 2.476zm-12.7929-1.5188c-1.8014-2.2605-2.861-4.242-3.2143-5.9373-.3531-1.3775-.2119-2.4725.3886-3.2848.6357-.9536 1.5895-1.4128 2.8257-1.4128s2.1898.4592 2.8255 1.4128c.6005.8123.7417 1.9073.3886 3.2848-.3886 1.7307-1.4481 3.7086-3.2141 5.9373z"/>
  </defs>
</svg>
